<?xml version="1.0" encoding="utf-8"?>
<!-- Generator: Adobe Illustrator 24.0.1, SVG Export Plug-In . SVG Version: 6.00 Build 0)  -->
<svg version="1.1" id="Capa_1" xmlns="http://www.w3.org/2000/svg" xmlns:xlink="http://www.w3.org/1999/xlink" x="0px" y="0px"
	 viewBox="0 0 240 24" style="enable-background:new 0 0 240 24;" xml:space="preserve">
<style type="text/css">
	.st0{fill:#FFFFFF;}
</style>
<g>
	<path class="st0" d="M0,0h5.1v23.7H0V0z"/>
	<path class="st0" d="M19.3,10.3l1.6,7.7c0.1,0.6,0.3,1,0.5,1.3c0.2,0.3,0.5,0.4,0.9,0.4c0.3,0,0.6-0.1,0.8-0.4
		c0.2-0.3,0.3-0.6,0.3-1.1v-12h4.4V19c0,1.5-0.5,2.7-1.5,3.6c-1,0.9-2.4,1.4-4,1.4c-1.5,0-2.8-0.4-3.7-1.1c-0.9-0.8-1.6-1.9-1.9-3.4
		l-1.6-7.6c-0.1-0.6-0.3-1-0.5-1.3c-0.2-0.3-0.5-0.4-0.9-0.4c-0.3,0-0.6,0.1-0.8,0.4c-0.2,0.3-0.3,0.6-0.3,1.1v12H8.2V10.8
		c0-1.5,0.5-2.7,1.5-3.6c1-0.9,2.4-1.4,4-1.4c1.5,0,2.8,0.4,3.7,1.1C18.4,7.7,19,8.9,19.3,10.3z"/>
	<path class="st0" d="M42.3,20.6c-0.4,1.1-1,2-1.8,2.5c-0.8,0.6-1.8,0.9-2.9,0.9c-1.1,0-2.1-0.3-2.9-0.9c-0.8-0.6-1.4-1.4-1.8-2.5
		L28,6.1h4.7l4,12.7c0.1,0.3,0.2,0.5,0.3,0.7s0.3,0.2,0.5,0.2c0.2,0,0.4-0.1,0.6-0.2c0.1-0.1,0.3-0.4,0.4-0.7l4-12.7h4.7L42.3,20.6z
		"/>
	<path class="st0" d="M53,6.1h8.8v4.3h-8.6c-0.6,0-1.1,0.1-1.3,0.3c-0.2,0.2-0.3,0.6-0.3,1.2v0.8h10.1V17H51.6v1
		c0,0.6,0.1,1,0.3,1.2c0.2,0.2,0.6,0.3,1.3,0.3h8.6v4.3H53c-2.1,0-3.6-0.4-4.5-1.3c-0.9-0.9-1.4-2.3-1.4-4.4v-6.2
		c0-2,0.5-3.5,1.4-4.4C49.4,6.6,50.9,6.1,53,6.1z"/>
	<path class="st0" d="M75.7,10.3l1.6,7.7c0.1,0.6,0.3,1,0.5,1.3c0.2,0.3,0.5,0.4,0.9,0.4c0.3,0,0.6-0.1,0.8-0.4
		c0.2-0.3,0.3-0.6,0.3-1.1v-12h4.4V19c0,1.5-0.5,2.7-1.5,3.6c-1,0.9-2.4,1.4-4,1.4c-1.5,0-2.8-0.4-3.7-1.1c-0.9-0.8-1.6-1.9-1.9-3.4
		l-1.6-7.6c-0.1-0.6-0.3-1-0.5-1.3c-0.2-0.3-0.5-0.4-0.9-0.4c-0.3,0-0.6,0.1-0.8,0.4c-0.2,0.3-0.3,0.6-0.3,1.1v12h-4.4V10.8
		c0-1.5,0.5-2.7,1.5-3.6c1-0.9,2.4-1.4,4-1.4c1.5,0,2.8,0.4,3.7,1.1C74.8,7.7,75.4,8.9,75.7,10.3z"/>
	<path class="st0" d="M94.5,0h12.4v5H94.4c-0.8,0-1.5,0.2-1.9,0.5c-0.4,0.4-0.6,0.9-0.6,1.6c0,0.7,0.2,1.2,0.6,1.6
		c0.4,0.4,1.1,0.5,1.9,0.5h5.4c2.6,0,4.6,0.6,6,1.9c1.4,1.3,2.2,3.1,2.2,5.3s-0.7,4-2.2,5.3c-1.4,1.3-3.5,1.9-6,1.9H87.2v-5h12.7
		c1,0,1.7-0.2,2.2-0.6c0.5-0.4,0.7-0.9,0.7-1.7c0-0.8-0.3-1.3-0.7-1.7c-0.5-0.4-1.2-0.6-2.2-0.6h-5.4c-2.4,0-4.3-0.6-5.7-1.9
		c-1.4-1.3-2.1-3-2.1-5.2c0-2.2,0.7-3.9,2.1-5.2C90.2,0.6,92.1,0,94.5,0z"/>
	<path class="st0" d="M116.1,5.8h5.4c1.9,0,3.4,0.5,4.4,1.6c1,1,1.6,2.5,1.6,4.4v6.3c0,1.9-0.5,3.3-1.6,4.4c-1.1,1-2.5,1.6-4.4,1.6
		h-5.4c-1.9,0-3.4-0.5-4.4-1.6c-1.1-1-1.6-2.5-1.6-4.4v-6.3c0-1.9,0.5-3.3,1.6-4.4C112.8,6.4,114.2,5.8,116.1,5.8z M114.6,12.4v5.1
		c0,0.7,0.2,1.2,0.6,1.6c0.4,0.4,0.9,0.6,1.7,0.6h3.9c0.7,0,1.3-0.2,1.7-0.6c0.4-0.4,0.6-0.9,0.6-1.6v-5.1c0-0.7-0.2-1.2-0.6-1.6
		c-0.4-0.4-0.9-0.6-1.7-0.6h-3.9c-0.7,0-1.3,0.2-1.7,0.6C114.8,11.1,114.6,11.7,114.6,12.4z"/>
	<path class="st0" d="M136.1,6.1h8.8v4.3h-8.6c-0.6,0-1.1,0.1-1.3,0.3c-0.2,0.2-0.3,0.6-0.3,1.2v1.2h10.2v4.4h-10.2v6.1h-4.4V11.8
		c0-2,0.5-3.5,1.4-4.4C132.6,6.6,134.1,6.1,136.1,6.1z"/>
	<path class="st0" d="M144.9,6.1h15v4.3h-5.3v13.2h-4.4V10.5h-5.3V6.1z"/>
	<path class="st0" d="M173.1,20.6c-0.3,1.1-0.8,1.9-1.6,2.5c-0.8,0.6-1.8,0.9-3,0.9c-1.2,0-2.2-0.3-3-0.9c-0.8-0.6-1.4-1.4-1.7-2.5
		l-4.4-14.5h4.6l3.6,12.7c0.1,0.3,0.2,0.5,0.4,0.6c0.1,0.1,0.3,0.2,0.5,0.2c0.2,0,0.4-0.1,0.6-0.2c0.2-0.1,0.3-0.4,0.3-0.6l3.3-12.7
		h4.4l3.4,12.7c0.1,0.3,0.2,0.5,0.3,0.6c0.2,0.1,0.3,0.2,0.6,0.2c0.2,0,0.4-0.1,0.5-0.2c0.2-0.1,0.3-0.4,0.3-0.6l3.6-12.7h4.6
		l-4.4,14.5c-0.4,1.2-1,2-1.8,2.6c-0.8,0.6-1.7,0.8-2.9,0.8c-1.2,0-2.2-0.3-3-0.9c-0.8-0.6-1.4-1.4-1.6-2.5l-1.9-7.7L173.1,20.6z"/>
	<path class="st0" d="M202.4,9.3l4.9,14.4h-4.7l-4-12.7c-0.1-0.3-0.2-0.5-0.4-0.6c-0.1-0.1-0.3-0.2-0.6-0.2c-0.2,0-0.4,0.1-0.5,0.2
		s-0.2,0.4-0.3,0.7l-4,12.7h-4.7L193,9.3c0.4-1.1,0.9-1.9,1.8-2.5c0.8-0.6,1.8-0.9,2.9-0.9c1.2,0,2.1,0.3,2.9,0.9
		C201.4,7.3,202,8.1,202.4,9.3z"/>
	<path class="st0" d="M207.4,6.1h10c1.9,0,3.4,0.3,4.3,1c1,0.7,1.4,1.7,1.4,3.1v2c0,0.9-0.2,1.6-0.5,2.1c-0.4,0.5-0.9,0.8-1.7,1
		c0.5,0.2,0.9,0.4,1.1,0.7c0.3,0.3,0.5,0.9,0.7,1.7l1.3,5.9h-4.7l-0.9-4.6c-0.1-0.5-0.3-0.9-0.5-1.2c-0.2-0.3-0.5-0.4-0.9-0.4h-3.5
		v-4.1h3.9c0.5,0,0.8-0.1,1-0.2c0.2-0.1,0.3-0.4,0.3-0.7v-1c0-0.3-0.1-0.6-0.3-0.7c-0.2-0.2-0.5-0.2-1-0.2h-5.5v13.2h-4.4V6.1z"/>
	<path class="st0" d="M231.2,6.1h8.8v4.3h-8.6c-0.6,0-1.1,0.1-1.3,0.3c-0.2,0.2-0.3,0.6-0.3,1.2v0.8H240V17h-10.1v1
		c0,0.6,0.1,1,0.3,1.2c0.2,0.2,0.6,0.3,1.3,0.3h8.6v4.3h-8.8c-2.1,0-3.6-0.4-4.5-1.3c-0.9-0.9-1.4-2.3-1.4-4.4v-6.2
		c0-2,0.5-3.5,1.4-4.4C227.7,6.6,229.2,6.1,231.2,6.1z"/>
</g>
</svg>
